<svg xmlns="http://www.w3.org/2000/svg" xmlns:xlink="http://www.w3.org/1999/xlink" viewBox="0 0 123.09 103.97"><defs><linearGradient id="linear-gradient" x1="10.64" y1="30.04" x2="38.07" y2="76.11" gradientUnits="userSpaceOnUse"><stop offset="0" stop-color="#f95100"/><stop offset="1" stop-color="#b02710"/></linearGradient><linearGradient id="linear-gradient-2" x1="20.59" y1="23.28" x2="43.84" y2="62.33" xlink:href="#linear-gradient"/><linearGradient id="linear-gradient-3" x1="31.57" y1="18.27" x2="51.43" y2="51.63" xlink:href="#linear-gradient"/><linearGradient id="linear-gradient-4" x1="175.53" y1="77.47" x2="191.44" y2="29.46" gradientTransform="matrix(-1, 0, 0, 1, 269.33, 0)" gradientUnits="userSpaceOnUse"><stop offset="0" stop-color="#ff8330"/><stop offset="1" stop-color="#e52710"/></linearGradient><linearGradient id="linear-gradient-5" x1="94.81" y1="41.03" x2="44.24" y2="131.22" gradientTransform="matrix(1, 0, 0, 1, 0, 0)" xlink:href="#linear-gradient-4"/></defs><title>Asset 1</title><g style="isolation:isolate"><g id="Layer_2" data-name="Layer 2"><g id="OBJECTS"><path d="M51.05,91.08l-5.3,6.64,0,0L0,18.53a15.76,15.76,0,0,1,7.94,2.13,15.84,15.84,0,0,1,5.8,5.81Z" style="fill:url(#linear-gradient)"/><path d="M59.1,81l-5.32,6.67L13.87,18.53a15.89,15.89,0,0,1,13.75,7.94Z" style="fill:url(#linear-gradient-2)"/><path d="M67.15,70.91l-5.32,6.66-34.08-59a15.85,15.85,0,0,1,13.74,7.94Z" style="fill:url(#linear-gradient-3)"/><path d="M56.21,104h0A11.87,11.87,0,0,0,66.49,98l56.6-98h0A47.5,47.5,0,0,0,82,23.75l-36,62.41A11.87,11.87,0,0,0,56.21,104Z" style="fill:url(#linear-gradient-4)"/><path d="M123.09,0,66.41,98.15a.06.06,0,0,1,0,0A11.86,11.86,0,0,1,56.21,104a11.66,11.66,0,0,1-1.58-.1l.54-1L64.8,85.16,108.3,9.83S113.36.42,123.09,0Z" style="mix-blend-mode:screen;fill:url(#linear-gradient-5)"/></g></g></g></svg>